<svg xmlns="http://www.w3.org/2000/svg" width="57.51" height="15.553" viewBox="0 0 57.51 15.553">
  <g id="グループ_6" data-name="グループ 6" transform="translate(-107.908 -383.297)">
    <path id="パス_1" data-name="パス 1" d="M118.985,389.954h-4.833a.226.226,0,0,0-.226.226v2.363a.226.226,0,0,0,.226.226h1.885V395.7a5.706,5.706,0,0,1-1.593.144c-1.381,0-3.31-.5-3.31-4.746s2.008-4.8,3.894-4.8a7.641,7.641,0,0,1,2.783.426.228.228,0,0,0,.271-.222l.539-2.283a.211.211,0,0,0-.086-.176c-.182-.13-1.29-.75-4.091-.75-3.226,0-6.536,1.373-6.536,7.971s3.789,7.582,6.982,7.582a7.861,7.861,0,0,0,4.247-1.13.194.194,0,0,0,.073-.171V390.18A.226.226,0,0,0,118.985,389.954Z" fill="#fff"/>
    <path id="パス_2" data-name="パス 2" d="M277.573,387.053a.225.225,0,0,0-.224-.227h-2.721a.226.226,0,0,0-.225.227v5.259h-4.242v-5.259a.225.225,0,0,0-.224-.227h-2.721a.226.226,0,0,0-.225.227v14.239a.227.227,0,0,0,.225.228h2.721a.226.226,0,0,0,.224-.228V395.2H274.4l-.008,6.09a.227.227,0,0,0,.225.228h2.728a.226.226,0,0,0,.224-.228Z" transform="translate(-133.683 -2.966)" fill="#fff"/>
    <g id="グループ_5" data-name="グループ 5" transform="translate(120.61 384.184)">
      <g id="グループ_4" data-name="グループ 4" transform="translate(0)">
        <path id="パス_3" data-name="パス 3" d="M190.972,390.627a1.755,1.755,0,1,0-1.755,1.773A1.762,1.762,0,0,0,190.972,390.627Z" transform="translate(-187.463 -388.855)" fill="#fff"/>
        <path id="パス_4" data-name="パス 4" d="M191.52,422.828v-6.573a.226.226,0,0,0-.225-.227h-2.713a.259.259,0,0,0-.236.253V425.7c0,.277.172.359.4.359h2.444c.268,0,.334-.132.334-.364Z" transform="translate(-188.206 -411.69)" fill="#fff"/>
      </g>
    </g>
    <path id="パス_5" data-name="パス 5" d="M350.63,416.163h-2.7a.226.226,0,0,0-.225.228v6.982a3.051,3.051,0,0,1-1.66.5c-.974,0-1.232-.442-1.232-1.4v-6.088a.226.226,0,0,0-.224-.228h-2.741a.227.227,0,0,0-.225.228v6.55c0,2.832,1.578,3.525,3.749,3.525a6.329,6.329,0,0,0,3.217-.984,5.75,5.75,0,0,0,.1.58.238.238,0,0,0,.2.123l1.743-.008a.227.227,0,0,0,.225-.227v-9.558A.227.227,0,0,0,350.63,416.163Z" transform="translate(-196.399 -27.618)" fill="#fff"/>
    <path id="パス_6" data-name="パス 6" d="M413.966,391.19a5.077,5.077,0,0,0-2.577.684v-4.821a.226.226,0,0,0-.224-.227h-2.729a.226.226,0,0,0-.225.227v14.239a.227.227,0,0,0,.225.228h1.893a.226.226,0,0,0,.2-.121,4.447,4.447,0,0,0,.115-.656,4.882,4.882,0,0,0,3.228,1.057c2.48,0,3.9-1.258,3.9-5.647S415.5,391.19,413.966,391.19Zm-1.065,8.023a3.24,3.24,0,0,1-1.572-.453V394.25a3.6,3.6,0,0,1,1.4-.453c.972-.087,1.909.207,1.909,2.526C414.634,398.77,414.211,399.252,412.9,399.213Z" transform="translate(-252.354 -2.966)" fill="#fff"/>
    <path id="パス_7" data-name="パス 7" d="M221.342,401.024H219.3l0-2.7c0-.1-.053-.153-.171-.153h-2.781c-.108,0-.166.048-.166.152v2.787s-1.394.337-1.488.364a.226.226,0,0,0-.163.217v1.751a.226.226,0,0,0,.225.228h1.426v4.213c0,3.129,2.195,3.436,3.676,3.436a6.208,6.208,0,0,0,1.62-.267.21.21,0,0,0,.128-.2l0-1.926a.23.23,0,0,0-.226-.227c-.119,0-.423.048-.736.048-1,0-1.342-.466-1.342-1.07s0-4,0-4h2.041a.226.226,0,0,0,.225-.228V401.25A.226.226,0,0,0,221.342,401.024Z" transform="translate(-89.596 -12.502)" fill="#fff"/>
  </g>
</svg>
